solid OpenSCAD_Model
  facet normal -0.743147 -0.669129 0
    outer loop
      vertex -6.69131 -7.43145 0
      vertex -8.09017 -5.87785 25
      vertex -8.09017 -5.87785 0
    endloop
  endfacet
  facet normal -0.743147 -0.669129 0
    outer loop
      vertex -8.09017 -5.87785 25
      vertex -6.69131 -7.43145 0
      vertex -6.69131 -7.43145 25
    endloop
  endfacet
  facet normal 0.951055 0.309021 0
    outer loop
      vertex 9.78148 2.07912 25
      vertex 9.13545 4.06737 0
      vertex 9.13545 4.06737 25
    endloop
  endfacet
  facet normal 0.951055 0.309021 0
    outer loop
      vertex 9.13545 4.06737 0
      vertex 9.78148 2.07912 25
      vertex 9.78148 2.07912 0
    endloop
  endfacet
  facet normal 0.994522 0.104526 0
    outer loop
      vertex 10 0 25
      vertex 9.78148 2.07912 0
      vertex 9.78148 2.07912 25
    endloop
  endfacet
  facet normal 0.994522 0.104526 0
    outer loop
      vertex 9.78148 2.07912 0
      vertex 10 0 25
      vertex 10 0 0
    endloop
  endfacet
  facet normal 0.866026 0.5 0
    outer loop
      vertex 9.13545 4.06737 25
      vertex 8.09017 5.87785 0
      vertex 8.09017 5.87785 25
    endloop
  endfacet
  facet normal 0.866026 0.5 0
    outer loop
      vertex 8.09017 5.87785 0
      vertex 9.13545 4.06737 25
      vertex 9.13545 4.06737 0
    endloop
  endfacet
  facet normal 0.951055 -0.309021 0
    outer loop
      vertex 9.13545 -4.06737 25
      vertex 9.78148 -2.07912 0
      vertex 9.78148 -2.07912 25
    endloop
  endfacet
  facet normal 0.951055 -0.309021 0
    outer loop
      vertex 9.78148 -2.07912 0
      vertex 9.13545 -4.06737 25
      vertex 9.13545 -4.06737 0
    endloop
  endfacet
  facet normal 0.587783 -0.809019 0
    outer loop
      vertex 5 -8.66025 0
      vertex 6.69131 -7.43145 25
      vertex 5 -8.66025 25
    endloop
  endfacet
  facet normal 0.587783 -0.809019 0
    outer loop
      vertex 6.69131 -7.43145 25
      vertex 5 -8.66025 0
      vertex 6.69131 -7.43145 0
    endloop
  endfacet
  facet normal 0.743147 -0.669129 0
    outer loop
      vertex 6.69131 -7.43145 25
      vertex 8.09017 -5.87785 0
      vertex 8.09017 -5.87785 25
    endloop
  endfacet
  facet normal 0.743147 -0.669129 0
    outer loop
      vertex 8.09017 -5.87785 0
      vertex 6.69131 -7.43145 25
      vertex 6.69131 -7.43145 0
    endloop
  endfacet
  facet normal 0.994522 -0.104526 0
    outer loop
      vertex 9.78148 -2.07912 25
      vertex 10 0 0
      vertex 10 0 25
    endloop
  endfacet
  facet normal 0.994522 -0.104526 0
    outer loop
      vertex 10 0 0
      vertex 9.78148 -2.07912 25
      vertex 9.78148 -2.07912 0
    endloop
  endfacet
  facet normal -0.406736 -0.913546 0
    outer loop
      vertex -5 -8.66025 0
      vertex -3.09017 -9.51056 25
      vertex -5 -8.66025 25
    endloop
  endfacet
  facet normal -0.406736 -0.913546 -0
    outer loop
      vertex -3.09017 -9.51056 25
      vertex -5 -8.66025 0
      vertex -3.09017 -9.51056 0
    endloop
  endfacet
  facet normal 0.406736 0.913546 -0
    outer loop
      vertex 5 8.66025 0
      vertex 3.09017 9.51056 25
      vertex 5 8.66025 25
    endloop
  endfacet
  facet normal 0.406736 0.913546 0
    outer loop
      vertex 3.09017 9.51056 25
      vertex 5 8.66025 0
      vertex 3.09017 9.51056 0
    endloop
  endfacet
  facet normal 0.743147 0.669129 0
    outer loop
      vertex 8.09017 5.87785 25
      vertex 6.69131 7.43145 0
      vertex 6.69131 7.43145 25
    endloop
  endfacet
  facet normal 0.743147 0.669129 0
    outer loop
      vertex 6.69131 7.43145 0
      vertex 8.09017 5.87785 25
      vertex 8.09017 5.87785 0
    endloop
  endfacet
  facet normal -0.587783 -0.809019 0
    outer loop
      vertex -6.69131 -7.43145 0
      vertex -5 -8.66025 25
      vertex -6.69131 -7.43145 25
    endloop
  endfacet
  facet normal -0.587783 -0.809019 -0
    outer loop
      vertex -5 -8.66025 25
      vertex -6.69131 -7.43145 0
      vertex -5 -8.66025 0
    endloop
  endfacet
  facet normal -0.743147 0.669129 0
    outer loop
      vertex -8.09017 5.87785 0
      vertex -6.69131 7.43145 25
      vertex -6.69131 7.43145 0
    endloop
  endfacet
  facet normal -0.743147 0.669129 0
    outer loop
      vertex -6.69131 7.43145 25
      vertex -8.09017 5.87785 0
      vertex -8.09017 5.87785 25
    endloop
  endfacet
  facet normal 0 1 -0
    outer loop
      vertex 1.04528 9.94522 0
      vertex -1.04528 9.94522 25
      vertex 1.04528 9.94522 25
    endloop
  endfacet
  facet normal 0 1 0
    outer loop
      vertex -1.04528 9.94522 25
      vertex 1.04528 9.94522 0
      vertex -1.04528 9.94522 0
    endloop
  endfacet
  facet normal 0.406736 -0.913546 0
    outer loop
      vertex 3.09017 -9.51056 0
      vertex 5 -8.66025 25
      vertex 3.09017 -9.51056 25
    endloop
  endfacet
  facet normal 0.406736 -0.913546 0
    outer loop
      vertex 5 -8.66025 25
      vertex 3.09017 -9.51056 0
      vertex 5 -8.66025 0
    endloop
  endfacet
  facet normal 0.207914 -0.978147 0
    outer loop
      vertex 1.04528 -9.94522 0
      vertex 3.09017 -9.51056 25
      vertex 1.04528 -9.94522 25
    endloop
  endfacet
  facet normal 0.207914 -0.978147 0
    outer loop
      vertex 3.09017 -9.51056 25
      vertex 1.04528 -9.94522 0
      vertex 3.09017 -9.51056 0
    endloop
  endfacet
  facet normal -0.951055 0.309021 0
    outer loop
      vertex -9.78148 2.07912 0
      vertex -9.13545 4.06737 25
      vertex -9.13545 4.06737 0
    endloop
  endfacet
  facet normal -0.951055 0.309021 0
    outer loop
      vertex -9.13545 4.06737 25
      vertex -9.78148 2.07912 0
      vertex -9.78148 2.07912 25
    endloop
  endfacet
  facet normal 0 0 -1
    outer loop
      vertex 9.78148 -2.07912 0
      vertex 9.78148 2.07912 0
      vertex 10 0 0
    endloop
  endfacet
  facet normal 0 0 -1
    outer loop
      vertex 9.13545 -4.06737 0
      vertex 9.78148 2.07912 0
      vertex 9.78148 -2.07912 0
    endloop
  endfacet
  facet normal 0 0 -1
    outer loop
      vertex 9.13545 -4.06737 0
      vertex 9.13545 4.06737 0
      vertex 9.78148 2.07912 0
    endloop
  endfacet
  facet normal 0 0 -1
    outer loop
      vertex 8.09017 -5.87785 0
      vertex 9.13545 4.06737 0
      vertex 9.13545 -4.06737 0
    endloop
  endfacet
  facet normal 0 0 -1
    outer loop
      vertex 8.09017 -5.87785 0
      vertex 8.09017 5.87785 0
      vertex 9.13545 4.06737 0
    endloop
  endfacet
  facet normal 0 0 -1
    outer loop
      vertex 6.69131 -7.43145 0
      vertex 8.09017 5.87785 0
      vertex 8.09017 -5.87785 0
    endloop
  endfacet
  facet normal 0 0 -1
    outer loop
      vertex 6.69131 -7.43145 0
      vertex 6.69131 7.43145 0
      vertex 8.09017 5.87785 0
    endloop
  endfacet
  facet normal 0 0 -1
    outer loop
      vertex 5 -8.66025 0
      vertex 6.69131 7.43145 0
      vertex 6.69131 -7.43145 0
    endloop
  endfacet
  facet normal 0 0 -1
    outer loop
      vertex 5 -8.66025 0
      vertex 5 8.66025 0
      vertex 6.69131 7.43145 0
    endloop
  endfacet
  facet normal 0 0 -1
    outer loop
      vertex 3.09017 -9.51056 0
      vertex 5 8.66025 0
      vertex 5 -8.66025 0
    endloop
  endfacet
  facet normal 0 0 -1
    outer loop
      vertex 3.09017 -9.51056 0
      vertex 3.09017 9.51056 0
      vertex 5 8.66025 0
    endloop
  endfacet
  facet normal 0 0 -1
    outer loop
      vertex 1.04528 -9.94522 0
      vertex 3.09017 9.51056 0
      vertex 3.09017 -9.51056 0
    endloop
  endfacet
  facet normal 0 0 -1
    outer loop
      vertex 1.04528 -9.94522 0
      vertex 1.04528 9.94522 0
      vertex 3.09017 9.51056 0
    endloop
  endfacet
  facet normal 0 0 -1
    outer loop
      vertex -1.04528 -9.94522 0
      vertex 1.04528 9.94522 0
      vertex 1.04528 -9.94522 0
    endloop
  endfacet
  facet normal 0 0 -1
    outer loop
      vertex -1.04528 -9.94522 0
      vertex -1.04528 9.94522 0
      vertex 1.04528 9.94522 0
    endloop
  endfacet
  facet normal 0 0 -1
    outer loop
      vertex -3.09017 -9.51056 0
      vertex -1.04528 9.94522 0
      vertex -1.04528 -9.94522 0
    endloop
  endfacet
  facet normal 0 0 -1
    outer loop
      vertex -3.09017 -9.51056 0
      vertex -3.09017 9.51056 0
      vertex -1.04528 9.94522 0
    endloop
  endfacet
  facet normal 0 0 -1
    outer loop
      vertex -5 -8.66025 0
      vertex -3.09017 9.51056 0
      vertex -3.09017 -9.51056 0
    endloop
  endfacet
  facet normal 0 0 -1
    outer loop
      vertex -5 -8.66025 0
      vertex -5 8.66025 0
      vertex -3.09017 9.51056 0
    endloop
  endfacet
  facet normal 0 0 -1
    outer loop
      vertex -6.69131 -7.43145 0
      vertex -5 8.66025 0
      vertex -5 -8.66025 0
    endloop
  endfacet
  facet normal 0 0 -1
    outer loop
      vertex -6.69131 -7.43145 0
      vertex -6.69131 7.43145 0
      vertex -5 8.66025 0
    endloop
  endfacet
  facet normal 0 0 -1
    outer loop
      vertex -8.09017 -5.87785 0
      vertex -6.69131 7.43145 0
      vertex -6.69131 -7.43145 0
    endloop
  endfacet
  facet normal 0 0 -1
    outer loop
      vertex -8.09017 -5.87785 0
      vertex -8.09017 5.87785 0
      vertex -6.69131 7.43145 0
    endloop
  endfacet
  facet normal 0 0 -1
    outer loop
      vertex -9.13545 -4.06737 0
      vertex -8.09017 5.87785 0
      vertex -8.09017 -5.87785 0
    endloop
  endfacet
  facet normal 0 0 -1
    outer loop
      vertex -9.13545 -4.06737 0
      vertex -9.13545 4.06737 0
      vertex -8.09017 5.87785 0
    endloop
  endfacet
  facet normal 0 0 -1
    outer loop
      vertex -9.78148 -2.07912 0
      vertex -9.13545 4.06737 0
      vertex -9.13545 -4.06737 0
    endloop
  endfacet
  facet normal 0 0 -1
    outer loop
      vertex -9.78148 -2.07912 0
      vertex -9.78148 2.07912 0
      vertex -9.13545 4.06737 0
    endloop
  endfacet
  facet normal 0 -0 -1
    outer loop
      vertex -9.78148 2.07912 0
      vertex -9.78148 -2.07912 0
      vertex -10 0 0
    endloop
  endfacet
  facet normal -0.951055 -0.309021 0
    outer loop
      vertex -9.13545 -4.06737 0
      vertex -9.78148 -2.07912 25
      vertex -9.78148 -2.07912 0
    endloop
  endfacet
  facet normal -0.951055 -0.309021 0
    outer loop
      vertex -9.78148 -2.07912 25
      vertex -9.13545 -4.06737 0
      vertex -9.13545 -4.06737 25
    endloop
  endfacet
  facet normal -0.406736 0.913546 0
    outer loop
      vertex -3.09017 9.51056 0
      vertex -5 8.66025 25
      vertex -3.09017 9.51056 25
    endloop
  endfacet
  facet normal -0.406736 0.913546 0
    outer loop
      vertex -5 8.66025 25
      vertex -3.09017 9.51056 0
      vertex -5 8.66025 0
    endloop
  endfacet
  facet normal 0 0 1
    outer loop
      vertex 3 0 25
      vertex 10 0 25
      vertex 9.78148 2.07912 25
    endloop
  endfacet
  facet normal 0 0 1
    outer loop
      vertex 3 0 25
      vertex 9.78148 2.07912 25
      vertex 9.13545 4.06737 25
    endloop
  endfacet
  facet normal 0 0 1
    outer loop
      vertex 10 0 25
      vertex 3 0 25
      vertex 9.78148 -2.07912 25
    endloop
  endfacet
  facet normal 0 0 1
    outer loop
      vertex 2.42705 1.76336 25
      vertex 9.13545 4.06737 25
      vertex 8.09017 5.87785 25
    endloop
  endfacet
  facet normal 0 0 1
    outer loop
      vertex 9.78148 -2.07912 25
      vertex 3 0 25
      vertex 9.13545 -4.06737 25
    endloop
  endfacet
  facet normal 0 0 1
    outer loop
      vertex 2.42705 1.76336 25
      vertex 8.09017 5.87785 25
      vertex 6.69131 7.43145 25
    endloop
  endfacet
  facet normal -0 0 1
    outer loop
      vertex 2.42705 -1.76336 25
      vertex 9.13545 -4.06737 25
      vertex 3 0 25
    endloop
  endfacet
  facet normal 0 0 1
    outer loop
      vertex 2.42705 1.76336 25
      vertex 6.69131 7.43145 25
      vertex 5 8.66025 25
    endloop
  endfacet
  facet normal 0 0 1
    outer loop
      vertex 9.13545 -4.06737 25
      vertex 2.42705 -1.76336 25
      vertex 8.09017 -5.87785 25
    endloop
  endfacet
  facet normal 0 0 1
    outer loop
      vertex 0.927051 2.85317 25
      vertex 5 8.66025 25
      vertex 3.09017 9.51056 25
    endloop
  endfacet
  facet normal 0 0 1
    outer loop
      vertex 8.09017 -5.87785 25
      vertex 2.42705 -1.76336 25
      vertex 6.69131 -7.43145 25
    endloop
  endfacet
  facet normal 0 0 1
    outer loop
      vertex 6.69131 -7.43145 25
      vertex 2.42705 -1.76336 25
      vertex 5 -8.66025 25
    endloop
  endfacet
  facet normal 0 0 1
    outer loop
      vertex 9.13545 4.06737 25
      vertex 2.42705 1.76336 25
      vertex 3 0 25
    endloop
  endfacet
  facet normal 0 0 1
    outer loop
      vertex 0.927051 2.85317 25
      vertex 3.09017 9.51056 25
      vertex 1.04528 9.94522 25
    endloop
  endfacet
  facet normal 0 0 1
    outer loop
      vertex 5 8.66025 25
      vertex 0.927051 2.85317 25
      vertex 2.42705 1.76336 25
    endloop
  endfacet
  facet normal 0 0 1
    outer loop
      vertex 1.04528 9.94522 25
      vertex -0.927051 2.85317 25
      vertex 0.927051 2.85317 25
    endloop
  endfacet
  facet normal -0 0 1
    outer loop
      vertex -1.04528 9.94522 25
      vertex -0.927051 2.85317 25
      vertex 1.04528 9.94522 25
    endloop
  endfacet
  facet normal -0 0 1
    outer loop
      vertex -3.09017 9.51056 25
      vertex -0.927051 2.85317 25
      vertex -1.04528 9.94522 25
    endloop
  endfacet
  facet normal -0 0 1
    outer loop
      vertex -5 8.66025 25
      vertex -0.927051 2.85317 25
      vertex -3.09017 9.51056 25
    endloop
  endfacet
  facet normal 0 0 1
    outer loop
      vertex -0.927051 2.85317 25
      vertex -5 8.66025 25
      vertex -2.42705 1.76336 25
    endloop
  endfacet
  facet normal -0 0 1
    outer loop
      vertex 0.927051 -2.85317 25
      vertex 5 -8.66025 25
      vertex 2.42705 -1.76336 25
    endloop
  endfacet
  facet normal 0 0 1
    outer loop
      vertex 5 -8.66025 25
      vertex 0.927051 -2.85317 25
      vertex 3.09017 -9.51056 25
    endloop
  endfacet
  facet normal 0 0 1
    outer loop
      vertex 3.09017 -9.51056 25
      vertex 0.927051 -2.85317 25
      vertex 1.04528 -9.94522 25
    endloop
  endfacet
  facet normal -0 0 1
    outer loop
      vertex -0.927051 -2.85317 25
      vertex 1.04528 -9.94522 25
      vertex 0.927051 -2.85317 25
    endloop
  endfacet
  facet normal 0 0 1
    outer loop
      vertex -0.927051 -2.85317 25
      vertex -1.04528 -9.94522 25
      vertex 1.04528 -9.94522 25
    endloop
  endfacet
  facet normal 0 0 1
    outer loop
      vertex -5 -8.66025 25
      vertex -0.927051 -2.85317 25
      vertex -2.42705 -1.76336 25
    endloop
  endfacet
  facet normal 0 0 1
    outer loop
      vertex -9.13545 -4.06737 25
      vertex -2.42705 -1.76336 25
      vertex -3 0 25
    endloop
  endfacet
  facet normal 0 0 1
    outer loop
      vertex -0.927051 -2.85317 25
      vertex -3.09017 -9.51056 25
      vertex -1.04528 -9.94522 25
    endloop
  endfacet
  facet normal -0 0 1
    outer loop
      vertex -6.69131 7.43145 25
      vertex -2.42705 1.76336 25
      vertex -5 8.66025 25
    endloop
  endfacet
  facet normal -0 0 1
    outer loop
      vertex -8.09017 5.87785 25
      vertex -2.42705 1.76336 25
      vertex -6.69131 7.43145 25
    endloop
  endfacet
  facet normal 0 0 1
    outer loop
      vertex -0.927051 -2.85317 25
      vertex -5 -8.66025 25
      vertex -3.09017 -9.51056 25
    endloop
  endfacet
  facet normal -0 0 1
    outer loop
      vertex -9.13545 4.06737 25
      vertex -2.42705 1.76336 25
      vertex -8.09017 5.87785 25
    endloop
  endfacet
  facet normal 0 0 1
    outer loop
      vertex -2.42705 -1.76336 25
      vertex -6.69131 -7.43145 25
      vertex -5 -8.66025 25
    endloop
  endfacet
  facet normal 0 0 1
    outer loop
      vertex -2.42705 1.76336 25
      vertex -9.13545 4.06737 25
      vertex -3 0 25
    endloop
  endfacet
  facet normal 0 0 1
    outer loop
      vertex -2.42705 -1.76336 25
      vertex -8.09017 -5.87785 25
      vertex -6.69131 -7.43145 25
    endloop
  endfacet
  facet normal -0 0 1
    outer loop
      vertex -9.78148 2.07912 25
      vertex -3 0 25
      vertex -9.13545 4.06737 25
    endloop
  endfacet
  facet normal 0 0 1
    outer loop
      vertex -2.42705 -1.76336 25
      vertex -9.13545 -4.06737 25
      vertex -8.09017 -5.87785 25
    endloop
  endfacet
  facet normal 0 0 1
    outer loop
      vertex -10 0 25
      vertex -3 0 25
      vertex -9.78148 2.07912 25
    endloop
  endfacet
  facet normal 0 0 1
    outer loop
      vertex -3 0 25
      vertex -9.78148 -2.07912 25
      vertex -9.13545 -4.06737 25
    endloop
  endfacet
  facet normal 0 0 1
    outer loop
      vertex -3 0 25
      vertex -10 0 25
      vertex -9.78148 -2.07912 25
    endloop
  endfacet
  facet normal -0.207914 -0.978147 0
    outer loop
      vertex -3.09017 -9.51056 0
      vertex -1.04528 -9.94522 25
      vertex -3.09017 -9.51056 25
    endloop
  endfacet
  facet normal -0.207914 -0.978147 -0
    outer loop
      vertex -1.04528 -9.94522 25
      vertex -3.09017 -9.51056 0
      vertex -1.04528 -9.94522 0
    endloop
  endfacet
  facet normal 0.207914 0.978147 -0
    outer loop
      vertex 3.09017 9.51056 0
      vertex 1.04528 9.94522 25
      vertex 3.09017 9.51056 25
    endloop
  endfacet
  facet normal 0.207914 0.978147 0
    outer loop
      vertex 1.04528 9.94522 25
      vertex 3.09017 9.51056 0
      vertex 1.04528 9.94522 0
    endloop
  endfacet
  facet normal -0.994522 -0.104526 0
    outer loop
      vertex -9.78148 -2.07912 0
      vertex -10 0 25
      vertex -10 0 0
    endloop
  endfacet
  facet normal -0.994522 -0.104526 0
    outer loop
      vertex -10 0 25
      vertex -9.78148 -2.07912 0
      vertex -9.78148 -2.07912 25
    endloop
  endfacet
  facet normal -0.866026 -0.5 0
    outer loop
      vertex -8.09017 -5.87785 0
      vertex -9.13545 -4.06737 25
      vertex -9.13545 -4.06737 0
    endloop
  endfacet
  facet normal -0.866026 -0.5 0
    outer loop
      vertex -9.13545 -4.06737 25
      vertex -8.09017 -5.87785 0
      vertex -8.09017 -5.87785 25
    endloop
  endfacet
  facet normal -0.866026 0.5 0
    outer loop
      vertex -9.13545 4.06737 0
      vertex -8.09017 5.87785 25
      vertex -8.09017 5.87785 0
    endloop
  endfacet
  facet normal -0.866026 0.5 0
    outer loop
      vertex -8.09017 5.87785 25
      vertex -9.13545 4.06737 0
      vertex -9.13545 4.06737 25
    endloop
  endfacet
  facet normal 0.866026 -0.5 0
    outer loop
      vertex 8.09017 -5.87785 25
      vertex 9.13545 -4.06737 0
      vertex 9.13545 -4.06737 25
    endloop
  endfacet
  facet normal 0.866026 -0.5 0
    outer loop
      vertex 9.13545 -4.06737 0
      vertex 8.09017 -5.87785 25
      vertex 8.09017 -5.87785 0
    endloop
  endfacet
  facet normal 0.587783 0.809019 -0
    outer loop
      vertex 6.69131 7.43145 0
      vertex 5 8.66025 25
      vertex 6.69131 7.43145 25
    endloop
  endfacet
  facet normal 0.587783 0.809019 0
    outer loop
      vertex 5 8.66025 25
      vertex 6.69131 7.43145 0
      vertex 5 8.66025 0
    endloop
  endfacet
  facet normal -0.587783 0.809019 0
    outer loop
      vertex -5 8.66025 0
      vertex -6.69131 7.43145 25
      vertex -5 8.66025 25
    endloop
  endfacet
  facet normal -0.587783 0.809019 0
    outer loop
      vertex -6.69131 7.43145 25
      vertex -5 8.66025 0
      vertex -6.69131 7.43145 0
    endloop
  endfacet
  facet normal -0.207914 0.978147 0
    outer loop
      vertex -1.04528 9.94522 0
      vertex -3.09017 9.51056 25
      vertex -1.04528 9.94522 25
    endloop
  endfacet
  facet normal -0.207914 0.978147 0
    outer loop
      vertex -3.09017 9.51056 25
      vertex -1.04528 9.94522 0
      vertex -3.09017 9.51056 0
    endloop
  endfacet
  facet normal 0 -1 0
    outer loop
      vertex -1.04528 -9.94522 0
      vertex 1.04528 -9.94522 25
      vertex -1.04528 -9.94522 25
    endloop
  endfacet
  facet normal 0 -1 -0
    outer loop
      vertex 1.04528 -9.94522 25
      vertex -1.04528 -9.94522 0
      vertex 1.04528 -9.94522 0
    endloop
  endfacet
  facet normal -0.994522 0.104526 0
    outer loop
      vertex -10 0 0
      vertex -9.78148 2.07912 25
      vertex -9.78148 2.07912 0
    endloop
  endfacet
  facet normal -0.994522 0.104526 0
    outer loop
      vertex -9.78148 2.07912 25
      vertex -10 0 0
      vertex -10 0 25
    endloop
  endfacet
  facet normal -0.951057 -0.309017 0
    outer loop
      vertex -2.42705 -1.76336 25
      vertex -3 0 26
      vertex -3 0 25
    endloop
  endfacet
  facet normal -0.951057 -0.309017 0
    outer loop
      vertex -3 0 26
      vertex -2.42705 -1.76336 25
      vertex -2.42705 -1.76336 26
    endloop
  endfacet
  facet normal 0.587784 0.809018 -0
    outer loop
      vertex 2.42705 1.76336 25
      vertex 0.927051 2.85317 26
      vertex 2.42705 1.76336 26
    endloop
  endfacet
  facet normal 0.587784 0.809018 0
    outer loop
      vertex 0.927051 2.85317 26
      vertex 2.42705 1.76336 25
      vertex 0.927051 2.85317 25
    endloop
  endfacet
  facet normal 0.951057 0.309017 0
    outer loop
      vertex 3 0 26
      vertex 2.42705 1.76336 25
      vertex 2.42705 1.76336 26
    endloop
  endfacet
  facet normal 0.951057 0.309017 0
    outer loop
      vertex 2.42705 1.76336 25
      vertex 3 0 26
      vertex 3 0 25
    endloop
  endfacet
  facet normal 0 1 -0
    outer loop
      vertex 0.927051 2.85317 25
      vertex -0.927051 2.85317 26
      vertex 0.927051 2.85317 26
    endloop
  endfacet
  facet normal 0 1 0
    outer loop
      vertex -0.927051 2.85317 26
      vertex 0.927051 2.85317 25
      vertex -0.927051 2.85317 25
    endloop
  endfacet
  facet normal 0.587784 -0.809018 0
    outer loop
      vertex 0.927051 -2.85317 25
      vertex 2.42705 -1.76336 26
      vertex 0.927051 -2.85317 26
    endloop
  endfacet
  facet normal 0.587784 -0.809018 0
    outer loop
      vertex 2.42705 -1.76336 26
      vertex 0.927051 -2.85317 25
      vertex 2.42705 -1.76336 25
    endloop
  endfacet
  facet normal 0 0 1
    outer loop
      vertex 2.25 0 26
      vertex 3 0 26
      vertex 2.42705 1.76336 26
    endloop
  endfacet
  facet normal 0 0 1
    outer loop
      vertex 3 0 26
      vertex 2.25 0 26
      vertex 2.42705 -1.76336 26
    endloop
  endfacet
  facet normal 0 0 1
    outer loop
      vertex 2.42705 1.76336 26
      vertex 1.59099 1.59099 26
      vertex 2.25 0 26
    endloop
  endfacet
  facet normal 0 0 1
    outer loop
      vertex 0.927051 2.85317 26
      vertex 1.59099 1.59099 26
      vertex 2.42705 1.76336 26
    endloop
  endfacet
  facet normal 0 0 1
    outer loop
      vertex 0.927051 2.85317 26
      vertex 0 2.25 26
      vertex 1.59099 1.59099 26
    endloop
  endfacet
  facet normal -0 0 1
    outer loop
      vertex -0.927051 2.85317 26
      vertex 0 2.25 26
      vertex 0.927051 2.85317 26
    endloop
  endfacet
  facet normal 0 0 1
    outer loop
      vertex -0.927051 2.85317 26
      vertex -1.59099 1.59099 26
      vertex 0 2.25 26
    endloop
  endfacet
  facet normal 0 0 1
    outer loop
      vertex -1.59099 1.59099 26
      vertex -2.42705 1.76336 26
      vertex -2.25 0 26
    endloop
  endfacet
  facet normal -0 0 1
    outer loop
      vertex -2.42705 1.76336 26
      vertex -1.59099 1.59099 26
      vertex -0.927051 2.85317 26
    endloop
  endfacet
  facet normal -0 0 1
    outer loop
      vertex 1.59099 -1.59099 26
      vertex 2.42705 -1.76336 26
      vertex 2.25 0 26
    endloop
  endfacet
  facet normal 0 0 1
    outer loop
      vertex 1.59099 -1.59099 26
      vertex 0.927051 -2.85317 26
      vertex 2.42705 -1.76336 26
    endloop
  endfacet
  facet normal -0 0 1
    outer loop
      vertex 0 -2.25 26
      vertex 0.927051 -2.85317 26
      vertex 1.59099 -1.59099 26
    endloop
  endfacet
  facet normal 0 0 1
    outer loop
      vertex 0 -2.25 26
      vertex -0.927051 -2.85317 26
      vertex 0.927051 -2.85317 26
    endloop
  endfacet
  facet normal 0 0 1
    outer loop
      vertex -1.59099 -1.59099 26
      vertex -0.927051 -2.85317 26
      vertex 0 -2.25 26
    endloop
  endfacet
  facet normal 0 0 1
    outer loop
      vertex -1.59099 -1.59099 26
      vertex -2.42705 -1.76336 26
      vertex -0.927051 -2.85317 26
    endloop
  endfacet
  facet normal 0 0 1
    outer loop
      vertex -2.25 0 26
      vertex -2.42705 -1.76336 26
      vertex -1.59099 -1.59099 26
    endloop
  endfacet
  facet normal 0 0 1
    outer loop
      vertex -3 0 26
      vertex -2.25 0 26
      vertex -2.42705 1.76336 26
    endloop
  endfacet
  facet normal 0 0 1
    outer loop
      vertex -2.25 0 26
      vertex -3 0 26
      vertex -2.42705 -1.76336 26
    endloop
  endfacet
  facet normal -0.587784 -0.809018 0
    outer loop
      vertex -2.42705 -1.76336 25
      vertex -0.927051 -2.85317 26
      vertex -2.42705 -1.76336 26
    endloop
  endfacet
  facet normal -0.587784 -0.809018 -0
    outer loop
      vertex -0.927051 -2.85317 26
      vertex -2.42705 -1.76336 25
      vertex -0.927051 -2.85317 25
    endloop
  endfacet
  facet normal 0.951057 -0.309017 0
    outer loop
      vertex 2.42705 -1.76336 26
      vertex 3 0 25
      vertex 3 0 26
    endloop
  endfacet
  facet normal 0.951057 -0.309017 0
    outer loop
      vertex 3 0 25
      vertex 2.42705 -1.76336 26
      vertex 2.42705 -1.76336 25
    endloop
  endfacet
  facet normal -0.587784 0.809018 0
    outer loop
      vertex -0.927051 2.85317 25
      vertex -2.42705 1.76336 26
      vertex -0.927051 2.85317 26
    endloop
  endfacet
  facet normal -0.587784 0.809018 0
    outer loop
      vertex -2.42705 1.76336 26
      vertex -0.927051 2.85317 25
      vertex -2.42705 1.76336 25
    endloop
  endfacet
  facet normal 0 -1 0
    outer loop
      vertex -0.927051 -2.85317 25
      vertex 0.927051 -2.85317 26
      vertex -0.927051 -2.85317 26
    endloop
  endfacet
  facet normal 0 -1 -0
    outer loop
      vertex 0.927051 -2.85317 26
      vertex -0.927051 -2.85317 25
      vertex 0.927051 -2.85317 25
    endloop
  endfacet
  facet normal -0.951057 0.309017 0
    outer loop
      vertex -3 0 25
      vertex -2.42705 1.76336 26
      vertex -2.42705 1.76336 25
    endloop
  endfacet
  facet normal -0.951057 0.309017 0
    outer loop
      vertex -2.42705 1.76336 26
      vertex -3 0 25
      vertex -3 0 26
    endloop
  endfacet
  facet normal 0.923879 0.382684 0
    outer loop
      vertex -1.59099 -1.59099 26
      vertex -2.25 0 5
      vertex -2.25 0 26
    endloop
  endfacet
  facet normal 0.923879 0.382684 0
    outer loop
      vertex -2.25 0 5
      vertex -1.59099 -1.59099 26
      vertex -1.59099 -1.59099 5
    endloop
  endfacet
  facet normal -0.382684 -0.923879 0
    outer loop
      vertex 0 2.25 5
      vertex 1.59099 1.59099 26
      vertex 0 2.25 26
    endloop
  endfacet
  facet normal -0.382684 -0.923879 -0
    outer loop
      vertex 1.59099 1.59099 26
      vertex 0 2.25 5
      vertex 1.59099 1.59099 5
    endloop
  endfacet
  facet normal -0.923879 -0.382684 0
    outer loop
      vertex 2.25 0 5
      vertex 1.59099 1.59099 26
      vertex 1.59099 1.59099 5
    endloop
  endfacet
  facet normal -0.923879 -0.382684 0
    outer loop
      vertex 1.59099 1.59099 26
      vertex 2.25 0 5
      vertex 2.25 0 26
    endloop
  endfacet
  facet normal -0.923879 0.382684 0
    outer loop
      vertex 1.59099 -1.59099 5
      vertex 2.25 0 26
      vertex 2.25 0 5
    endloop
  endfacet
  facet normal -0.923879 0.382684 0
    outer loop
      vertex 2.25 0 26
      vertex 1.59099 -1.59099 5
      vertex 1.59099 -1.59099 26
    endloop
  endfacet
  facet normal 0.382684 0.923879 -0
    outer loop
      vertex 0 -2.25 5
      vertex -1.59099 -1.59099 26
      vertex 0 -2.25 26
    endloop
  endfacet
  facet normal 0.382684 0.923879 0
    outer loop
      vertex -1.59099 -1.59099 26
      vertex 0 -2.25 5
      vertex -1.59099 -1.59099 5
    endloop
  endfacet
  facet normal 0.923879 -0.382684 0
    outer loop
      vertex -2.25 0 26
      vertex -1.59099 1.59099 5
      vertex -1.59099 1.59099 26
    endloop
  endfacet
  facet normal 0.923879 -0.382684 0
    outer loop
      vertex -1.59099 1.59099 5
      vertex -2.25 0 26
      vertex -2.25 0 5
    endloop
  endfacet
  facet normal -0.382684 0.923879 0
    outer loop
      vertex 1.59099 -1.59099 5
      vertex 0 -2.25 26
      vertex 1.59099 -1.59099 26
    endloop
  endfacet
  facet normal -0.382684 0.923879 0
    outer loop
      vertex 0 -2.25 26
      vertex 1.59099 -1.59099 5
      vertex 0 -2.25 5
    endloop
  endfacet
  facet normal 0.382684 -0.923879 0
    outer loop
      vertex -1.59099 1.59099 5
      vertex 0 2.25 26
      vertex -1.59099 1.59099 26
    endloop
  endfacet
  facet normal 0.382684 -0.923879 0
    outer loop
      vertex 0 2.25 26
      vertex -1.59099 1.59099 5
      vertex 0 2.25 5
    endloop
  endfacet
  facet normal 0 0 1
    outer loop
      vertex 1.59099 1.59099 5
      vertex 1.59099 -1.59099 5
      vertex 2.25 0 5
    endloop
  endfacet
  facet normal 0 0 1
    outer loop
      vertex 0 2.25 5
      vertex 1.59099 -1.59099 5
      vertex 1.59099 1.59099 5
    endloop
  endfacet
  facet normal 0 0 1
    outer loop
      vertex 0 2.25 5
      vertex 0 -2.25 5
      vertex 1.59099 -1.59099 5
    endloop
  endfacet
  facet normal -0 0 1
    outer loop
      vertex -1.59099 1.59099 5
      vertex 0 -2.25 5
      vertex 0 2.25 5
    endloop
  endfacet
  facet normal 0 0 1
    outer loop
      vertex -1.59099 1.59099 5
      vertex -1.59099 -1.59099 5
      vertex 0 -2.25 5
    endloop
  endfacet
  facet normal 0 -0 1
    outer loop
      vertex -1.59099 -1.59099 5
      vertex -1.59099 1.59099 5
      vertex -2.25 0 5
    endloop
  endfacet
endsolid OpenSCAD_Model
